<?xml version="1.0" encoding="utf-8"?>
<!DOCTYPE svg PUBLIC "-//W3C//DTD SVG 1.0//EN" "http://www.w3.org/TR/2001/REC-SVG-20010904/DTD/svg10.dtd">
<svg version="1.0" xmlns="http://www.w3.org/2000/svg" width="720px" height="1080px" viewBox="0 0 720 1080" preserveAspectRatio="xMidYMid meet">
 <g fill="#ffffff">
  <path d="M0 540 l0 -540 360 0 360 0 0 540 0 540 -360 0 -360 0 0 -540z m554.75 265.40 c13.25 -1.80 24.15 -5.10 37.20 -11.30 12.10 -5.70 26.90 -16.90 36.25 -27.35 15.30 -17.20 24.60 -34.20 30.05 -55.05 1.45 -5.65 2.05 -8.85 3.25 -18.10 0.95 -7.15 1 -11.80 1 -189.30 0 -116.50 -0.20 -183.05 -0.50 -185 -0.25 -1.65 -0.80 -5.50 -1.25 -8.55 -2.40 -17.35 -9.30 -35.80 -19 -50.75 -6.75 -10.45 -17.40 -22.35 -26.15 -29.20 -4.95 -3.90 -15.50 -10.80 -20.25 -13.35 -9.75 -5.10 -21.95 -9.35 -34.85 -12.05 l-7.75 -1.65 -189.50 -0.15 c-141.10 -0.10 -190.90 0 -195 0.40 -17.35 1.85 -37.30 8.80 -52.25 18.25 -10.65 6.75 -23.75 18.70 -31.55 28.75 -12.50 16.15 -21.65 37.25 -24.75 57 -2.25 14.45 -2.20 6.70 -2.20 196.50 0 175.55 0 179.40 1 187 1.55 12.15 1.75 13.35 3.65 20.50 6.90 25.65 19.50 46.35 39.10 64 2.85 2.60 4.95 4.30 6.95 5.75 0.80 0.55 2.80 2.05 4.50 3.35 1.65 1.25 3.75 2.70 4.65 3.25 0.90 0.50 3.45 2 5.75 3.40 9.80 5.85 26.30 11.75 37.15 13.20 2.20 0.30 5.35 0.75 7 1 1.70 0.25 85.25 0.40 192.25 0.35 171.85 -0.10 189.80 -0.15 195.25 -0.90z"/>
  <path d="M171.75 768.65 c-14.55 -1.70 -26.80 -5.75 -36.10 -12 -8.95 -5.95 -16.80 -13.35 -22.60 -21.15 -7.60 -10.30 -13.15 -21.95 -16.35 -34.25 -2.30 -8.80 -2.20 0.25 -2.20 -195.75 0 -183.20 0 -184.80 1 -190.75 1.20 -7.05 1.55 -8.55 3.60 -14.50 1.70 -5.20 5.30 -12.75 8.75 -18.55 11.75 -19.65 31.15 -33.70 53.65 -38.85 l4.75 -1.05 191.25 -0.15 191.20 -0.15 6.30 1.20 c11.70 2.35 25 7.65 32.55 13.10 18.85 13.50 31.95 32.65 36.80 53.95 l1.40 6 0 188.50 0 188.50 -1.15 5.25 c-4.25 19.30 -14.50 36.85 -29.30 50.10 -8.15 7.35 -13.85 10.95 -23 14.60 -7.20 2.90 -14.45 4.60 -24.55 5.80 -7.75 0.95 -13.20 1 -189 0.90 -151.50 -0.05 -182 -0.15 -187 -0.75z m136.75 -76.55 c6.75 -2.30 10.95 -4.80 16.35 -9.60 l2.50 -2.25 -4.25 -5.25 c-2.35 -2.90 -4.45 -5.45 -4.65 -5.70 -0.20 -0.25 -1.80 0.60 -3.55 1.80 -7.05 5.05 -11.50 6.40 -20.70 6.40 -6.15 0 -7 -0.10 -9.85 -1.30 -1.70 -0.75 -4.05 -2 -5.20 -2.80 -4.20 -3.05 -9.15 -11.25 -9.15 -15.25 l0 -2.15 30.90 -0.10 30.85 -0.15 0.45 -3.25 c1 -7.15 -1.30 -18.75 -5.30 -26.70 -3.10 -6.15 -9.05 -12.45 -15.55 -16.50 -6.30 -3.95 -9.50 -4.90 -17.10 -5.20 -5.55 -0.20 -7.15 -0.05 -10.75 0.85 -9.80 2.45 -19.15 8.70 -25.30 16.85 -13.65 18.20 -11.85 41.35 4.60 58.30 3.90 4.05 9.40 8.05 13.85 10.10 6.60 3.10 10.65 3.80 20.60 3.55 6.20 -0.15 7.50 -0.35 11.25 -1.65z m187.65 -0.05 c6.55 -2.15 10.40 -4.50 14.55 -8.80 9 -9.35 8.95 -25.30 -0.10 -33.25 -4.50 -4 -7.80 -5.40 -20.35 -8.75 -11.95 -3.20 -14.85 -4.50 -17 -7.65 -1 -1.45 -1.25 -2.45 -1.25 -4.90 0 -3.70 0.90 -5.10 4.65 -7.05 2.35 -1.25 3.25 -1.40 8.95 -1.55 5.70 -0.20 6.85 -0.05 10.90 1.10 2.50 0.70 5.40 1.75 6.50 2.30 1.10 0.55 2.15 1 2.40 1 0.40 0 5.40 -6.90 7.70 -10.60 l0.85 -1.35 -2.35 -1.70 c-12.15 -8.85 -32.95 -9.50 -45.45 -1.40 -3.60 2.30 -8.25 7.40 -9.90 10.80 -0.70 1.40 -1.55 4.10 -1.95 6.05 -0.55 3.10 -0.55 4 0.25 7.90 1.15 5.80 2.80 8.95 6.50 12.80 3.80 3.85 7.75 5.75 16.20 7.70 14 3.25 19.55 5.45 21.70 8.55 1 1.50 1.15 2.20 0.95 5.30 -0.20 3.40 -0.25 3.65 -2.20 5.45 -1.10 1 -3.35 2.35 -5 3 -2.65 1 -3.55 1.10 -9.45 0.85 -3.65 -0.15 -7.85 -0.60 -9.50 -1.05 -3.55 -1 -9.85 -3.90 -12.05 -5.55 l-1.60 -1.20 -2.80 3.60 c-1.55 1.95 -3.60 4.60 -4.55 5.80 -1 1.25 -1.70 2.45 -1.60 2.75 0.15 0.60 6 4.65 8.50 5.90 5.70 2.85 12.55 5.20 16.35 5.55 1.25 0.15 5.20 0.20 8.75 0.10 5.75 -0.10 7.05 -0.30 11.40 -1.70z m-268.75 -61.65 l0.10 -61.40 -9.50 0 -9.50 0 0 61.20 0 61.25 1.65 0.20 c0.85 0.10 5.10 0.20 9.35 0.15 l7.75 -0.05 0.15 -61.35z m144.10 34.60 l0.25 -26.75 1.80 -3.50 c4.95 -9.45 14.20 -13.95 25.50 -12.35 4.60 0.65 7.20 1.85 9.35 4.35 3.50 3.95 3.30 2.35 3.60 35.25 l0.25 29.75 9.75 0 9.75 0 0 -30.75 c0 -23.50 -0.15 -31.50 -0.65 -34 -2.80 -13.65 -15.25 -23 -30.55 -23 -4.60 0 -5.85 0.20 -9.55 1.50 -2.35 0.85 -5.45 2.35 -6.90 3.35 -2.75 1.85 -7 6.30 -8.50 8.80 -0.60 1.05 -1.20 1.35 -2.45 1.35 l-1.60 0 -0.15 -6.85 -0.15 -6.90 -9.60 -0.15 -9.65 -0.10 0 43.15 c0 23.75 0.15 43.35 0.35 43.55 0.20 0.15 4.50 0.25 9.60 0.20 l9.30 -0.15 0.25 -26.75z m15.90 -102.05 c18 -1.95 33.30 -5.80 44.10 -11.05 5.45 -2.65 17.95 -10.65 24.80 -15.90 4.30 -3.30 19.20 -16.85 19.20 -17.50 0 -0.20 -3.75 -3.95 -8.35 -8.30 -4.65 -4.35 -10.75 -10.20 -13.65 -12.95 -11.25 -10.70 -13.50 -12.75 -13.85 -12.75 -0.20 0 -3.50 3.05 -7.30 6.75 -7.35 7.15 -12.10 10.65 -19.60 14.35 -11.45 5.65 -20.85 7.65 -36.50 7.65 -8.40 0 -17.70 -1 -21 -2.25 -0.85 -0.30 -2.55 -0.75 -3.80 -1 -1.30 -0.25 -4.20 -1.35 -6.50 -2.45 -16.25 -7.75 -29.95 -21.05 -38.10 -37 -1.75 -3.45 -3.30 -6.75 -3.50 -7.30 -0.15 -0.55 -0.85 -2.90 -1.55 -5.25 -2.15 -6.95 -3.30 -15.95 -3.30 -25.70 0 -7.40 0.20 -9.60 1.50 -16.30 1.80 -9.40 2.40 -11.65 4.55 -16.80 4.50 -10.80 13.35 -22.65 21.60 -28.85 7.05 -5.35 15.15 -9.60 22.60 -11.95 7.75 -2.50 9.80 -2.95 17.05 -3.90 17.95 -2.40 33.80 -0.20 47.25 6.55 7.90 3.95 11.70 6.80 20.80 15.60 3.55 3.45 4.65 4.30 5 3.70 0.20 -0.40 5.15 -5.65 10.95 -11.65 5.75 -6.05 13.60 -14.20 17.35 -18.20 l6.80 -7.20 -3.35 -3.15 c-4.85 -4.60 -16.55 -13.95 -22.25 -17.80 -20.60 -13.90 -53.35 -21.90 -81.10 -19.90 -18.75 1.35 -33.65 4.90 -49.10 11.60 -26.15 11.30 -45.40 28.55 -60.05 53.80 -6.75 11.55 -9.55 18.60 -14.85 37.40 -0.40 1.40 -1.10 5.10 -1.50 8.25 -0.45 3.15 -1.05 7.20 -1.30 9 -0.70 4.30 -0.65 22.10 0.05 25.25 0.25 1.40 0.85 4.70 1.25 7.40 1.20 8.05 4.70 19.90 9 30.60 5.15 12.90 17 30.40 28.55 42.10 13.25 13.50 29.50 23.50 46.95 29 8.40 2.60 21.95 5.25 31.20 6.10 7.05 0.60 24.35 0.65 29.95 0z m-209.55 -207.75 c5.65 -1.15 9.55 -3.25 13.30 -7.15 6.50 -6.75 8.75 -14.85 6.40 -23.10 -2.35 -8.20 -8.30 -13.75 -16.90 -15.75 -5.90 -1.40 -13.45 -0.10 -18.25 3.05 -1.10 0.75 -2.60 1.25 -3.65 1.25 -1.75 0 -1.75 -0.05 -1.75 -2.10 0 -1.20 0.45 -3.55 1 -5.30 2.25 -7.25 6.15 -11.35 12.75 -13.35 5.20 -1.55 7.95 -1.60 13.80 0 2.55 0.65 4.70 1.20 4.75 1.10 0.05 -0.05 1.25 -1.60 2.65 -3.45 l2.55 -3.35 -2.20 -1.30 c-3.80 -2.20 -7.75 -3.35 -12.85 -3.60 -11.10 -0.65 -20.20 3.20 -27.30 11.45 -3.85 4.45 -6.15 8.75 -7.95 14.65 -1.25 4.10 -1.35 5.20 -1.35 12.75 0 7.55 0.10 8.65 1.35 12.75 2.25 7.45 5.50 12.40 10.70 16.40 7.10 5.45 13.85 6.95 22.95 5.05z"/>
  <path d="M269.70 641.25 c-0.65 -1.65 0.15 -6.10 1.60 -8.95 2.85 -5.70 6.70 -8.95 12.75 -10.85 6.30 -1.95 15.40 -0.65 20.35 2.90 4.75 3.45 9.30 11.15 9 15.20 l-0.15 2.20 -21.65 0.15 c-19.15 0.10 -21.65 0 -21.90 -0.65z"/>
  <path d="M167.60 345.50 c-2.50 -0.55 -6.65 -2.70 -8.05 -4.20 -0.50 -0.55 -1.55 -2.15 -2.25 -3.50 -1.15 -2.10 -1.30 -3.05 -1.30 -7 0 -5.35 0.95 -7.50 4.35 -10.10 6.50 -4.95 19.60 -3.80 23.95 2.15 2.35 3.15 2.70 4.45 2.70 9.40 0 6.85 -1.35 9.15 -7.30 12.15 -2.45 1.25 -8.75 1.80 -12.10 1.10z"/>
 </g>
 <g fill="#0dd767">
  <path d="M165.75 807.45 c-1.65 -0.25 -4.80 -0.70 -7 -1 -10.85 -1.45 -27.35 -7.35 -37.15 -13.20 -2.30 -1.40 -4.85 -2.90 -5.75 -3.40 -0.90 -0.55 -3 -2 -4.65 -3.25 -1.70 -1.30 -3.70 -2.80 -4.50 -3.35 -7.75 -5.55 -17.35 -15.35 -24.80 -25.35 -10.05 -13.40 -16.60 -27.15 -21.25 -44.40 -1.90 -7.15 -2.10 -8.35 -3.65 -20.50 -1 -7.60 -1 -11.50 -1 -188.50 0 -191.40 -0.05 -183.55 2.20 -198 3.10 -19.75 12.25 -40.85 24.75 -57 7.80 -10.05 20.90 -22 31.55 -28.75 14.95 -9.45 34.90 -16.40 52.25 -18.25 4.10 -0.40 54.30 -0.50 196.50 -0.40 l191 0.15 7.75 1.65 c18.35 3.85 32.05 9.50 45.85 18.85 8.40 5.65 11.05 7.75 17.35 13.80 19.55 18.70 33.30 45.60 37.05 72.70 0.45 3.05 1 6.90 1.25 8.55 0.30 1.95 0.50 69.05 0.50 186.50 0 179 -0.05 183.65 -1 190.80 -1.90 14.65 -3.75 22.05 -8.45 33.90 -10.35 26.10 -30.70 49.60 -54.80 63.25 -4.65 2.60 -5.65 3.10 -11.55 5.80 -8.80 4 -20.90 7.35 -31.95 8.85 -5.45 0.75 -23.50 0.80 -196.75 0.90 -107.85 0.05 -192.05 -0.10 -193.75 -0.35z m380.50 -40.45 c10.10 -1.20 17.35 -2.90 24.55 -5.80 9.15 -3.65 14.85 -7.25 23 -14.60 14.80 -13.25 25.05 -30.80 29.30 -50.10 l1.15 -5.25 0 -187 0 -187 -1.40 -6 c-4.85 -21.30 -17.95 -40.45 -36.80 -53.95 -7.55 -5.45 -20.85 -10.75 -32.55 -13.10 l-6.30 -1.20 -189.70 0.15 -189.75 0.15 -4.75 1.05 c-22.50 5.15 -41.90 19.20 -53.65 38.85 -3.45 5.80 -7.05 13.35 -8.75 18.55 -2.05 5.95 -2.40 7.45 -3.60 14.50 -1 5.95 -1 7.55 -1 189.25 0 194.40 -0.10 185.45 2.20 194.25 4 15.45 12.45 31.05 22.55 41.70 11.90 12.50 25.10 20.20 40.75 23.70 12.60 2.85 2.90 2.70 197.25 2.75 174.35 0.10 179.75 0.05 187.50 -0.90z"/>
  <path d="M286 695.05 c-16.15 -2.35 -31.55 -16.50 -36.85 -33.80 -0.90 -3 -1.30 -5.60 -1.50 -10.55 -0.30 -6.95 0.15 -11.05 1.90 -16.65 4.45 -14.60 17.40 -26.80 32.45 -30.60 3.65 -0.95 5.20 -1.05 12.20 -0.85 9.30 0.30 11.90 1 18.65 5.20 11.75 7.30 18.95 19.05 20.65 33.85 0.60 5 0.45 14.25 -0.25 15.40 -0.20 0.25 -12.35 0.45 -31.05 0.45 -24.20 0 -30.70 0.15 -30.70 0.65 0 1.15 2.85 6.60 5 9.40 2.45 3.35 5.10 5.35 9.35 7.15 2.70 1.10 3.85 1.30 8.35 1.30 7.85 0 13.15 -1.85 19.95 -6.95 1.85 -1.40 3.70 -2.55 4.05 -2.55 0.60 0 11.10 12.40 11.60 13.70 0.25 0.65 -4.60 5.10 -8.70 7.95 -3.55 2.50 -6 3.70 -11.10 5.50 -3.95 1.35 -4.85 1.50 -12.75 1.60 -4.65 0.10 -9.75 0 -11.25 -0.20z m25.80 -55.30 c0.40 -1.05 -2.75 -7.55 -5 -10.20 -2.65 -3.20 -5.50 -5 -9.70 -6.35 -4.40 -1.40 -7.40 -1.50 -11.15 -0.40 -3.70 1.10 -6.10 2.40 -8.50 4.55 -2.25 2 -5.10 6.60 -6 9.60 -1.10 3.75 -2.35 3.55 20.05 3.55 17.35 0 20.05 -0.10 20.30 -0.75z"/>
  <path d="M474 695.05 c-3.05 -0.40 -9.70 -2.35 -11.25 -3.35 -0.55 -0.30 -1.55 -0.75 -2.25 -0.95 -1.70 -0.55 -8.95 -5.05 -10.60 -6.65 -0.80 -0.70 -1.40 -1.65 -1.40 -2.05 0.05 -0.45 1.05 -2.05 2.30 -3.55 1.20 -1.50 3.55 -4.50 5.20 -6.60 1.65 -2.10 3.25 -4 3.50 -4.15 0.30 -0.20 1.60 0.50 2.95 1.45 3.05 2.25 8.90 5.05 12.80 6.05 1.65 0.45 5.25 0.95 8 1.10 4.40 0.20 5.35 0.10 7.95 -0.85 6.25 -2.35 8.85 -6.90 6.25 -10.75 -2.15 -3.10 -7.70 -5.30 -21.70 -8.55 -8.45 -1.95 -12.40 -3.85 -16.20 -7.70 -3.80 -3.95 -5.35 -7 -6.65 -13.50 -0.95 -4.80 -1 -5.25 -0.25 -9.35 1 -5.45 2.60 -8.65 6.20 -12.65 3.60 -3.95 7.40 -6.45 12.90 -8.45 10.35 -3.75 27.05 -2.95 36.50 1.80 3.80 1.90 7.75 5.05 7.75 6.15 0 0.55 -1.35 2.95 -3.05 5.35 -1.65 2.40 -3.75 5.45 -4.60 6.75 -0.90 1.30 -1.90 2.40 -2.25 2.40 -0.35 0 -1.95 -0.70 -3.60 -1.50 -1.65 -0.85 -5.05 -2.10 -7.55 -2.80 -3.85 -1.10 -5.25 -1.30 -9.35 -1.10 -4 0.15 -5.30 0.45 -7.45 1.55 -4.65 2.40 -5.80 5.40 -3.40 8.95 2.15 3.15 5.05 4.45 17 7.65 9.45 2.50 12 3.35 15 5 8.55 4.70 12.25 11.15 12.25 21.40 0 9.55 -3.10 16.10 -10.50 21.90 -3.40 2.70 -5.45 3.75 -10.85 5.50 -4.60 1.50 -5.40 1.60 -12.90 1.75 -4.40 0.05 -9.25 -0.05 -10.75 -0.25z"/>
  <path d="M207 630.45 l0 -62.95 11 0 11 0 0.10 62.65 c0.10 41.30 0 62.75 -0.35 63 -0.25 0.20 -5.30 0.35 -11.10 0.30 l-10.65 -0.05 0 -62.95z"/>
  <path d="M350.85 693.20 c-0.20 -0.20 -0.35 -20.45 -0.35 -45.05 l0 -44.65 11.15 0.10 11.10 0.15 0.15 6.90 0.15 6.90 1.75 -2.40 c4.50 -5.95 8.40 -8.90 14.70 -11.15 3.90 -1.35 4.80 -1.50 11.05 -1.50 5.75 0 7.40 0.20 10.85 1.25 8.85 2.60 15.25 7.70 18.70 14.75 3.10 6.40 3.15 6.75 3.15 42.50 l0 32.25 -11.25 0 -11.25 0 -0.25 -29.75 c-0.30 -32.90 -0.10 -31.30 -3.60 -35.25 -2.05 -2.35 -4.55 -3.60 -8.55 -4.25 -9.55 -1.50 -18.60 3.25 -23.30 12.25 l-1.80 3.50 -0.25 26.75 -0.25 26.75 -10.80 0.15 c-5.90 0.05 -10.90 -0.05 -11.10 -0.20z"/>
  <path d="M355.95 564.45 c-11.80 -1.05 -27.35 -4.45 -37.30 -8.15 -3.50 -1.30 -13.20 -6 -17.65 -8.60 -17.15 -9.95 -34.90 -28.75 -45.85 -48.55 -7.10 -12.75 -12.95 -29.50 -14.90 -42.50 -0.40 -2.70 -1 -6 -1.30 -7.40 -0.70 -3.20 -0.75 -23.95 -0.05 -28.25 0.30 -1.80 0.90 -5.85 1.35 -9 0.80 -5.95 0.95 -6.50 4.05 -17 5.20 -17.70 13.40 -33 25.45 -47.75 19.55 -23.85 49.50 -40.05 83.25 -45 34.50 -5.10 72.50 2.20 96.85 18.60 9.40 6.35 27.05 21.30 26.60 22.55 -0.25 0.60 -10.25 11.25 -25.15 26.80 -5.80 6 -10.85 11.35 -11.20 11.85 -1.20 1.70 -2.70 1.10 -6.10 -2.35 -4.25 -4.25 -12.10 -11.10 -15.20 -13.15 -4.10 -2.70 -11.80 -6.35 -16.80 -7.95 -6.45 -2.05 -16 -3.60 -22.25 -3.60 -5.80 0 -18.30 1.55 -22.65 2.80 -13 3.75 -20.50 7.30 -29.45 14.05 -8.25 6.20 -17.10 18.05 -21.60 28.85 -2.15 5.15 -2.75 7.40 -4.55 16.80 -1.20 6.30 -1.50 9.05 -1.50 14.80 0 8.15 1.30 17.75 3.30 24.20 0.70 2.35 1.40 4.70 1.55 5.25 0.20 0.55 1.75 3.85 3.50 7.30 8.15 15.95 21.85 29.25 38.10 37 2.30 1.10 5.20 2.20 6.50 2.45 1.25 0.25 2.95 0.70 3.80 1 3 1.15 12.60 2.25 19.50 2.25 14.05 0 23.95 -2.15 35 -7.65 7.65 -3.80 12.25 -7.20 20.10 -14.85 4.05 -4 7.75 -7.25 8.20 -7.25 0.80 0 3.95 2.80 15.45 13.75 2.90 2.75 7.65 7.25 10.50 9.95 12.90 12.25 13 12.35 12.50 13.30 -0.70 1.35 -15.65 15 -20.20 18.50 -6.85 5.25 -19.35 13.30 -24.80 15.90 -10.80 5.25 -26.10 9.10 -44.10 11.05 -5.60 0.65 -25.90 0.60 -32.95 0z"/>
  <path d="M163.50 356.80 c-3.40 -0.75 -6.35 -2.25 -10.10 -5.15 -5.20 -3.95 -8.45 -8.95 -10.70 -16.40 -1.30 -4.25 -1.40 -5.05 -1.40 -14.25 0 -9.20 0.10 -10 1.40 -14.25 1.80 -5.90 4.15 -10.20 7.95 -14.65 5.15 -6 11.80 -9.85 19.25 -11.15 4.95 -0.85 15.15 -0.35 18.80 1 3.70 1.30 8.30 4.05 8.30 4.95 0 0.35 -1.05 1.95 -2.35 3.55 -1.35 1.60 -3 3.70 -3.70 4.60 -1.25 1.55 -1.45 1.65 -2.50 1 -1.30 -0.75 -9.50 -3.05 -11.05 -3.05 -0.55 0 -2.90 0.55 -5.15 1.25 -4.90 1.50 -8.30 4.20 -10.65 8.40 -1.55 2.75 -3.45 8.65 -3 9.15 0.20 0.15 1.15 -0.30 2.25 -1 6.85 -4.55 19.30 -5.05 27.15 -1.05 7.65 3.90 12 11.65 12 21.40 0 7.60 -2.15 13.05 -7.35 18.40 -3.75 3.90 -7.65 6 -13.30 7.15 -4.45 0.95 -11.95 1 -15.85 0.10z m14.75 -13.95 c5.40 -2.70 7.25 -5.40 7.25 -10.60 0 -6.35 -3.70 -10.70 -10.60 -12.55 -3.40 -0.90 -4.90 -0.90 -8.20 0.10 -5.75 1.65 -9.20 5.75 -9.20 11 0 4.90 2.45 8.95 7 11.40 4.45 2.45 9.70 2.70 13.75 0.65z"/>
 </g>
</svg>